<svg width="174" height="40" viewBox="0 0 174 40" fill="none" xmlns="http://www.w3.org/2000/svg">
<rect x="108" y="8" width="45" height="24" rx="3" fill="#A4D4B4"/>
<path d="M4.56 20.984V25.952C4.432 26 4.264 26.04 4.056 26.072C3.848 26.12 3.616 26.144 3.36 26.144C2.864 26.144 2.504 26.056 2.28 25.88C2.072 25.688 1.968 25.376 1.968 24.944V12.56C1.968 12.288 2.04 12.08 2.184 11.936C2.344 11.776 2.56 11.656 2.832 11.576C3.328 11.4 3.92 11.28 4.608 11.216C5.296 11.152 5.944 11.12 6.552 11.12C8.632 11.12 10.168 11.56 11.16 12.44C12.168 13.32 12.672 14.512 12.672 16.016C12.672 17.52 12.168 18.728 11.16 19.64C10.168 20.536 8.68 20.984 6.696 20.984H4.56ZM6.528 18.896C7.632 18.896 8.496 18.656 9.12 18.176C9.76 17.696 10.08 16.976 10.08 16.016C10.08 15.056 9.776 14.352 9.168 13.904C8.576 13.456 7.72 13.232 6.6 13.232C6.232 13.232 5.864 13.248 5.496 13.28C5.144 13.312 4.824 13.352 4.536 13.4V18.896H6.528ZM19.3566 24.392C19.9166 24.392 20.4046 24.336 20.8206 24.224C21.2366 24.112 21.5326 23.992 21.7086 23.864V20.816L19.0926 21.08C18.3566 21.16 17.8046 21.328 17.4366 21.584C17.0686 21.824 16.8846 22.2 16.8846 22.712C16.8846 23.24 17.0846 23.656 17.4846 23.96C17.8846 24.248 18.5086 24.392 19.3566 24.392ZM19.3086 14.432C20.7966 14.432 21.9806 14.76 22.8606 15.416C23.7406 16.056 24.1806 17.072 24.1806 18.464V24.056C24.1806 24.424 24.0926 24.712 23.9166 24.92C23.7566 25.112 23.5326 25.296 23.2446 25.472C22.8286 25.712 22.2926 25.92 21.6366 26.096C20.9806 26.272 20.2206 26.36 19.3566 26.36C17.8046 26.36 16.5886 26.056 15.7086 25.448C14.8446 24.84 14.4126 23.944 14.4126 22.76C14.4126 21.704 14.7486 20.896 15.4206 20.336C16.1086 19.776 17.0926 19.432 18.3726 19.304L21.7086 18.968V18.44C21.7086 17.736 21.4766 17.224 21.0126 16.904C20.5646 16.584 19.9326 16.424 19.1166 16.424C18.4766 16.424 17.8606 16.512 17.2686 16.688C16.6766 16.864 16.1486 17.064 15.6846 17.288C15.5246 17.16 15.3886 17.008 15.2766 16.832C15.1646 16.64 15.1086 16.432 15.1086 16.208C15.1086 15.936 15.1726 15.712 15.3006 15.536C15.4446 15.36 15.6606 15.208 15.9486 15.08C16.3966 14.856 16.9086 14.696 17.4846 14.6C18.0606 14.488 18.6686 14.432 19.3086 14.432ZM29.8864 25.952C29.7744 26 29.6144 26.04 29.4064 26.072C29.2144 26.12 28.9984 26.144 28.7584 26.144C28.2944 26.144 27.9504 26.056 27.7264 25.88C27.5024 25.704 27.3904 25.408 27.3904 24.992V17.12C27.3904 16.72 27.4704 16.4 27.6304 16.16C27.7904 15.904 28.0464 15.664 28.3984 15.44C28.8624 15.152 29.4544 14.912 30.1744 14.72C30.8944 14.528 31.6864 14.432 32.5504 14.432C33.9584 14.432 34.6624 14.832 34.6624 15.632C34.6624 15.824 34.6304 16.008 34.5664 16.184C34.5024 16.344 34.4304 16.488 34.3504 16.616C34.1904 16.584 33.9904 16.552 33.7504 16.52C33.5104 16.488 33.2544 16.472 32.9824 16.472C32.3424 16.472 31.7584 16.544 31.2304 16.688C30.7024 16.816 30.2544 16.984 29.8864 17.192V25.952ZM38.2779 26.144C37.8139 26.144 37.4699 26.056 37.2459 25.88C37.0219 25.704 36.9099 25.408 36.9099 24.992V10.424C37.0219 10.392 37.1819 10.352 37.3899 10.304C37.5979 10.256 37.8219 10.232 38.0619 10.232C38.5259 10.232 38.8699 10.32 39.0939 10.496C39.3179 10.672 39.4299 10.968 39.4299 11.384V25.952C39.3019 26 39.1339 26.04 38.9259 26.072C38.7339 26.12 38.5179 26.144 38.2779 26.144ZM47.1066 24.392C47.6666 24.392 48.1546 24.336 48.5706 24.224C48.9866 24.112 49.2826 23.992 49.4586 23.864V20.816L46.8426 21.08C46.1066 21.16 45.5546 21.328 45.1866 21.584C44.8186 21.824 44.6346 22.2 44.6346 22.712C44.6346 23.24 44.8346 23.656 45.2346 23.96C45.6346 24.248 46.2586 24.392 47.1066 24.392ZM47.0586 14.432C48.5466 14.432 49.7306 14.76 50.6106 15.416C51.4906 16.056 51.9306 17.072 51.9306 18.464V24.056C51.9306 24.424 51.8426 24.712 51.6666 24.92C51.5066 25.112 51.2826 25.296 50.9946 25.472C50.5786 25.712 50.0426 25.92 49.3866 26.096C48.7306 26.272 47.9706 26.36 47.1066 26.36C45.5546 26.36 44.3386 26.056 43.4586 25.448C42.5946 24.84 42.1626 23.944 42.1626 22.76C42.1626 21.704 42.4986 20.896 43.1706 20.336C43.8586 19.776 44.8426 19.432 46.1226 19.304L49.4586 18.968V18.44C49.4586 17.736 49.2266 17.224 48.7626 16.904C48.3146 16.584 47.6826 16.424 46.8666 16.424C46.2266 16.424 45.6106 16.512 45.0186 16.688C44.4266 16.864 43.8986 17.064 43.4346 17.288C43.2746 17.16 43.1386 17.008 43.0266 16.832C42.9146 16.64 42.8586 16.432 42.8586 16.208C42.8586 15.936 42.9226 15.712 43.0506 15.536C43.1946 15.36 43.4106 15.208 43.6986 15.08C44.1466 14.856 44.6586 14.696 45.2346 14.6C45.8106 14.488 46.4186 14.432 47.0586 14.432ZM69.1084 18.488C69.1084 17.784 68.9084 17.272 68.5084 16.952C68.1244 16.616 67.5964 16.448 66.9244 16.448C66.4764 16.448 66.0444 16.536 65.6284 16.712C65.2284 16.872 64.8604 17.096 64.5244 17.384C64.5564 17.512 64.5804 17.648 64.5964 17.792C64.6124 17.936 64.6204 18.08 64.6204 18.224V25.952C64.5084 26 64.3484 26.04 64.1404 26.072C63.9324 26.12 63.7164 26.144 63.4924 26.144C63.0284 26.144 62.6844 26.056 62.4604 25.88C62.2364 25.704 62.1244 25.408 62.1244 24.992V18.488C62.1244 17.784 61.9244 17.272 61.5244 16.952C61.1244 16.616 60.5884 16.448 59.9164 16.448C59.4684 16.448 59.0444 16.52 58.6444 16.664C58.2444 16.808 57.9084 16.968 57.6364 17.144V25.952C57.5244 26 57.3644 26.04 57.1564 26.072C56.9644 26.12 56.7484 26.144 56.5084 26.144C56.0444 26.144 55.7004 26.056 55.4764 25.88C55.2524 25.704 55.1404 25.408 55.1404 24.992V17.072C55.1404 16.704 55.2124 16.408 55.3564 16.184C55.5004 15.96 55.7404 15.736 56.0764 15.512C56.5404 15.208 57.1244 14.952 57.8284 14.744C58.5324 14.536 59.2444 14.432 59.9644 14.432C60.7164 14.432 61.3884 14.536 61.9804 14.744C62.5884 14.952 63.0844 15.256 63.4684 15.656C63.9164 15.304 64.4444 15.016 65.0524 14.792C65.6764 14.552 66.3964 14.432 67.2124 14.432C67.8364 14.432 68.4204 14.512 68.9644 14.672C69.5084 14.816 69.9724 15.056 70.3564 15.392C70.7564 15.712 71.0684 16.12 71.2924 16.616C71.5164 17.112 71.6284 17.704 71.6284 18.392V25.952C71.5004 26 71.3324 26.04 71.1244 26.072C70.9324 26.12 70.7164 26.144 70.4764 26.144C70.0124 26.144 69.6684 26.056 69.4444 25.88C69.2204 25.704 69.1084 25.408 69.1084 24.992V18.488ZM76.8891 21.656C77.1131 22.568 77.5451 23.248 78.1851 23.696C78.8411 24.128 79.6731 24.344 80.6811 24.344C81.3531 24.344 81.9691 24.24 82.5291 24.032C83.0891 23.824 83.5371 23.6 83.8731 23.36C84.3211 23.616 84.5451 23.976 84.5451 24.44C84.5451 24.712 84.4411 24.968 84.2331 25.208C84.0251 25.432 83.7371 25.632 83.3691 25.808C83.0171 25.968 82.5931 26.096 82.0971 26.192C81.6171 26.288 81.0971 26.336 80.5371 26.336C79.6091 26.336 78.7611 26.208 77.9931 25.952C77.2411 25.696 76.5931 25.312 76.0491 24.8C75.5051 24.288 75.0811 23.656 74.7771 22.904C74.4891 22.152 74.3451 21.28 74.3451 20.288C74.3451 19.328 74.4891 18.488 74.7771 17.768C75.0651 17.032 75.4571 16.424 75.9531 15.944C76.4491 15.448 77.0331 15.072 77.7051 14.816C78.3771 14.56 79.0971 14.432 79.8651 14.432C80.6331 14.432 81.3291 14.56 81.9531 14.816C82.5931 15.056 83.1371 15.4 83.5851 15.848C84.0491 16.28 84.4011 16.8 84.6411 17.408C84.8971 18.016 85.0251 18.68 85.0251 19.4C85.0251 19.8 84.9291 20.096 84.7371 20.288C84.5451 20.464 84.2651 20.584 83.8971 20.648L76.8891 21.656ZM79.8651 16.376C78.9851 16.376 78.2491 16.672 77.6571 17.264C77.0811 17.856 76.7771 18.704 76.7451 19.808L82.6491 18.968C82.5851 18.248 82.3211 17.64 81.8571 17.144C81.3931 16.632 80.7291 16.376 79.8651 16.376ZM95.1853 18.728C95.1853 17.944 94.9613 17.368 94.5133 17C94.0813 16.632 93.4893 16.448 92.7373 16.448C92.1773 16.448 91.6733 16.52 91.2253 16.664C90.7933 16.808 90.4173 16.968 90.0973 17.144V25.952C89.9853 26 89.8253 26.04 89.6173 26.072C89.4253 26.12 89.2093 26.144 88.9693 26.144C88.5053 26.144 88.1613 26.056 87.9373 25.88C87.7133 25.704 87.6013 25.408 87.6013 24.992V17.072C87.6013 16.704 87.6733 16.408 87.8173 16.184C87.9613 15.96 88.2013 15.736 88.5373 15.512C88.9853 15.24 89.5693 14.992 90.2893 14.768C91.0093 14.544 91.8253 14.432 92.7373 14.432C94.2893 14.432 95.5053 14.784 96.3853 15.488C97.2653 16.176 97.7053 17.224 97.7053 18.632V25.952C97.5933 26 97.4333 26.04 97.2253 26.072C97.0173 26.12 96.7933 26.144 96.5533 26.144C96.0893 26.144 95.7453 26.056 95.5213 25.88C95.2973 25.704 95.1853 25.408 95.1853 24.992V18.728ZM103.528 22.712C103.528 23.288 103.696 23.696 104.032 23.936C104.368 24.176 104.84 24.296 105.448 24.296C105.72 24.296 106.008 24.256 106.312 24.176C106.616 24.096 106.88 24 107.104 23.888C107.216 24.016 107.312 24.16 107.392 24.32C107.488 24.48 107.536 24.672 107.536 24.896C107.536 25.312 107.32 25.656 106.888 25.928C106.472 26.2 105.832 26.336 104.968 26.336C103.768 26.336 102.808 26.072 102.088 25.544C101.384 25 101.032 24.112 101.032 22.88V11.672C101.144 11.64 101.304 11.6 101.512 11.552C101.72 11.504 101.944 11.48 102.184 11.48C102.648 11.48 102.984 11.568 103.192 11.744C103.416 11.92 103.528 12.216 103.528 12.632V15.008H107.248C107.312 15.104 107.368 15.24 107.416 15.416C107.48 15.592 107.512 15.776 107.512 15.968C107.512 16.656 107.216 17 106.624 17H103.528V22.712Z" fill="#A4D4B4"/>
<path d="M114.325 24.392C114.885 24.392 115.373 24.336 115.789 24.224C116.205 24.112 116.501 23.992 116.677 23.864V20.816L114.061 21.08C113.325 21.16 112.773 21.328 112.405 21.584C112.037 21.824 111.853 22.2 111.853 22.712C111.853 23.24 112.053 23.656 112.453 23.96C112.853 24.248 113.477 24.392 114.325 24.392ZM114.277 14.432C115.765 14.432 116.949 14.76 117.829 15.416C118.709 16.056 119.149 17.072 119.149 18.464V24.056C119.149 24.424 119.061 24.712 118.885 24.92C118.725 25.112 118.501 25.296 118.213 25.472C117.797 25.712 117.261 25.92 116.605 26.096C115.949 26.272 115.189 26.36 114.325 26.36C112.773 26.36 111.557 26.056 110.677 25.448C109.813 24.84 109.381 23.944 109.381 22.76C109.381 21.704 109.717 20.896 110.389 20.336C111.077 19.776 112.061 19.432 113.341 19.304L116.677 18.968V18.44C116.677 17.736 116.445 17.224 115.981 16.904C115.533 16.584 114.901 16.424 114.085 16.424C113.445 16.424 112.829 16.512 112.237 16.688C111.645 16.864 111.117 17.064 110.653 17.288C110.493 17.16 110.357 17.008 110.245 16.832C110.133 16.64 110.077 16.432 110.077 16.208C110.077 15.936 110.141 15.712 110.269 15.536C110.413 15.36 110.629 15.208 110.917 15.08C111.365 14.856 111.877 14.696 112.453 14.6C113.029 14.488 113.637 14.432 114.277 14.432ZM132.415 30.368C132.303 30.416 132.143 30.456 131.935 30.488C131.727 30.536 131.503 30.56 131.263 30.56C130.799 30.56 130.455 30.472 130.231 30.296C130.007 30.12 129.895 29.816 129.895 29.384V25.76C129.575 25.92 129.207 26.056 128.791 26.168C128.375 26.28 127.895 26.336 127.351 26.336C126.535 26.336 125.783 26.224 125.095 26C124.423 25.76 123.839 25.4 123.343 24.92C122.847 24.424 122.455 23.808 122.167 23.072C121.895 22.32 121.759 21.44 121.759 20.432C121.759 19.424 121.903 18.544 122.191 17.792C122.495 17.04 122.911 16.416 123.439 15.92C123.967 15.424 124.591 15.056 125.311 14.816C126.047 14.56 126.847 14.432 127.711 14.432C128.527 14.432 129.263 14.536 129.919 14.744C130.591 14.936 131.135 15.16 131.551 15.416C131.823 15.592 132.031 15.792 132.175 16.016C132.335 16.24 132.415 16.52 132.415 16.856V30.368ZM127.711 24.296C128.159 24.296 128.567 24.232 128.935 24.104C129.319 23.976 129.647 23.816 129.919 23.624V17.024C129.679 16.88 129.375 16.752 129.007 16.64C128.655 16.512 128.247 16.448 127.783 16.448C127.287 16.448 126.831 16.528 126.415 16.688C125.999 16.832 125.631 17.064 125.311 17.384C125.007 17.704 124.767 18.12 124.591 18.632C124.415 19.128 124.327 19.728 124.327 20.432C124.327 21.792 124.631 22.776 125.239 23.384C125.847 23.992 126.671 24.296 127.711 24.296ZM135.719 14.792C135.831 14.76 135.991 14.728 136.199 14.696C136.407 14.648 136.631 14.624 136.871 14.624C137.335 14.624 137.671 14.712 137.879 14.888C138.103 15.064 138.215 15.368 138.215 15.8V21.728C138.215 22.656 138.455 23.32 138.935 23.72C139.431 24.104 140.111 24.296 140.975 24.296C141.535 24.296 142.007 24.24 142.391 24.128C142.775 24.016 143.079 23.896 143.303 23.768V14.792C143.431 14.76 143.591 14.728 143.783 14.696C143.991 14.648 144.215 14.624 144.455 14.624C144.919 14.624 145.263 14.712 145.487 14.888C145.711 15.064 145.823 15.368 145.823 15.8V23.888C145.823 24.24 145.767 24.528 145.655 24.752C145.543 24.976 145.319 25.192 144.983 25.4C144.567 25.64 144.015 25.856 143.327 26.048C142.655 26.24 141.863 26.336 140.951 26.336C139.303 26.336 138.015 25.976 137.087 25.256C136.175 24.52 135.719 23.36 135.719 21.776V14.792ZM151.741 25.952C151.629 26 151.469 26.04 151.261 26.072C151.069 26.12 150.845 26.144 150.589 26.144C150.125 26.144 149.781 26.056 149.557 25.88C149.333 25.704 149.221 25.408 149.221 24.992V14.84C149.349 14.808 149.509 14.768 149.701 14.72C149.909 14.672 150.141 14.648 150.397 14.648C150.861 14.648 151.197 14.736 151.405 14.912C151.629 15.088 151.741 15.392 151.741 15.824V25.952ZM148.957 11.312C148.957 10.896 149.101 10.552 149.389 10.28C149.677 9.992 150.045 9.848 150.493 9.848C150.941 9.848 151.301 9.992 151.573 10.28C151.845 10.552 151.981 10.896 151.981 11.312C151.981 11.728 151.845 12.08 151.573 12.368C151.301 12.64 150.941 12.776 150.493 12.776C150.045 12.776 149.677 12.64 149.389 12.368C149.101 12.08 148.957 11.728 148.957 11.312Z" fill="#3B1C32"/>
</svg>
