<svg width="27" height="24" viewBox="0 0 27 24" fill="none" xmlns="http://www.w3.org/2000/svg">
<path d="M26.48 9.20391L18.2302 0.579661C17.0726 -0.630464 15 0.175599 15 1.87576V6.00797C7.24444 6.10102 0 7.50483 0 15.5245C0 19.9767 2.6175 22.5666 4.17797 23.7076C5.31389 24.5383 6.8977 23.4736 6.50672 22.0899C4.73142 15.7916 7.76133 15.0924 15 15.0075V19.125C15 20.8237 17.0714 21.6325 18.2302 20.4211L26.4801 11.7961C27.1733 11.0709 27.1733 9.92907 26.48 9.20391ZM25.3959 10.7592L17.1459 19.3842C16.9147 19.6261 16.5 19.4653 16.5 19.125V13.5C8.46581 13.5 2.6572 13.955 5.06344 22.4859C3.375 21.2513 1.5 19.012 1.5 15.5245C1.5 8.02407 9.13528 7.50001 16.5 7.50001V1.87501C16.5 1.5346 16.9149 1.37391 17.1459 1.61579L25.3959 10.2408C25.4629 10.3105 25.5004 10.4034 25.5004 10.5C25.5004 10.5967 25.4629 10.6896 25.3959 10.7592Z" fill="black"/>
</svg>
