<svg width="21" height="22" viewBox="0 0 21 22" fill="none" xmlns="http://www.w3.org/2000/svg">
<path d="M17.8547 3.55156C15.8906 1.58281 13.275 0.5 10.4953 0.5C4.75781 0.5 0.0890625 5.16875 0.0890625 10.9062C0.0890625 12.7391 0.567188 14.5297 1.47656 16.1094L0 21.5L5.51719 20.0516C7.03594 20.8813 8.74687 21.3172 10.4906 21.3172H10.4953C16.2281 21.3172 21 16.6484 21 10.9109C21 8.13125 19.8188 5.52031 17.8547 3.55156ZM10.4953 19.5641C8.93906 19.5641 7.41562 19.1469 6.08906 18.3594L5.775 18.1719L2.50313 19.0297L3.375 15.8375L3.16875 15.5094C2.30156 14.1313 1.84688 12.5422 1.84688 10.9062C1.84688 6.13906 5.72812 2.25781 10.5 2.25781C12.8109 2.25781 14.9812 3.15781 16.6125 4.79375C18.2437 6.42969 19.2469 8.6 19.2422 10.9109C19.2422 15.6828 15.2625 19.5641 10.4953 19.5641ZM15.2391 13.0859C14.9813 12.9547 13.7016 12.3266 13.4625 12.2422C13.2234 12.1531 13.05 12.1109 12.8766 12.3734C12.7031 12.6359 12.2063 13.2172 12.0516 13.3953C11.9016 13.5688 11.7469 13.5922 11.4891 13.4609C9.96094 12.6969 8.95781 12.0969 7.95 10.3672C7.68281 9.90781 8.21719 9.94063 8.71406 8.94687C8.79844 8.77344 8.75625 8.62344 8.69062 8.49219C8.625 8.36094 8.10469 7.08125 7.88906 6.56094C7.67813 6.05469 7.4625 6.125 7.30313 6.11563C7.15313 6.10625 6.97969 6.10625 6.80625 6.10625C6.63281 6.10625 6.35156 6.17188 6.1125 6.42969C5.87344 6.69219 5.20312 7.32031 5.20312 8.6C5.20312 9.87969 6.13594 11.1172 6.2625 11.2906C6.39375 11.4641 8.09531 14.0891 10.7062 15.2188C12.3562 15.9312 13.0031 15.9922 13.8281 15.8703C14.3297 15.7953 15.3656 15.2422 15.5812 14.6328C15.7969 14.0234 15.7969 13.5031 15.7313 13.3953C15.6703 13.2781 15.4969 13.2125 15.2391 13.0859Z" fill="white"/>
</svg>
