<svg width="32" height="32" viewBox="0 0 32 32" fill="none" xmlns="http://www.w3.org/2000/svg">
<path fill-rule="evenodd" clip-rule="evenodd" d="M16.2921 9.29208C16.385 9.19895 16.4953 9.12507 16.6168 9.07465C16.7383 9.02424 16.8685 8.99829 17.0001 8.99829C17.1316 8.99829 17.2619 9.02424 17.3833 9.07465C17.5048 9.12507 17.6152 9.19895 17.7081 9.29208L23.7081 15.2921C23.8012 15.385 23.8751 15.4953 23.9255 15.6168C23.9759 15.7383 24.0019 15.8685 24.0019 16.0001C24.0019 16.1316 23.9759 16.2619 23.9255 16.3833C23.8751 16.5048 23.8012 16.6152 23.7081 16.7081L17.7081 22.7081C17.5203 22.8959 17.2656 23.0013 17.0001 23.0013C16.7345 23.0013 16.4799 22.8959 16.2921 22.7081C16.1043 22.5203 15.9988 22.2656 15.9988 22.0001C15.9988 21.7345 16.1043 21.4799 16.2921 21.2921L21.5861 16.0001L16.2921 10.7081C16.199 10.6152 16.1251 10.5048 16.0747 10.3833C16.0242 10.2619 15.9983 10.1316 15.9983 10.0001C15.9983 9.86854 16.0242 9.7383 16.0747 9.61681C16.1251 9.49532 16.199 9.38497 16.2921 9.29208Z" fill="#a4d4b4"/>
<path fill-rule="evenodd" clip-rule="evenodd" d="M8 16C8 15.7348 8.10536 15.4804 8.29289 15.2929C8.48043 15.1054 8.73478 15 9 15H22C22.2652 15 22.5196 15.1054 22.7071 15.2929C22.8946 15.4804 23 15.7348 23 16C23 16.2652 22.8946 16.5196 22.7071 16.7071C22.5196 16.8946 22.2652 17 22 17H9C8.73478 17 8.48043 16.8946 8.29289 16.7071C8.10536 16.5196 8 16.2652 8 16Z" fill="#a4d4b4"/>
</svg>
