<svg width="24" height="20" viewBox="0 0 24 20" fill="none" xmlns="http://www.w3.org/2000/svg">
<path d="M23 9H3.0505L10.6895 1.724C11.0895 1.343 11.105 0.71 10.724 0.31C10.3435 -0.0895003 9.7105 -0.1055 9.31 0.2755L0.586 8.5855C0.2085 8.9635 0 9.4655 0 10C0 10.534 0.2085 11.0365 0.6035 11.431L9.3105 19.724C9.504 19.9085 9.752 20 10 20C10.264 20 10.528 19.896 10.7245 19.6895C11.1055 19.2895 11.09 18.657 10.69 18.276L3.019 11H23C23.552 11 24 10.552 24 10C24 9.448 23.552 9 23 9Z" fill="black"/>
</svg>
