<svg width="30" height="24" viewBox="0 0 30 24" fill="none" xmlns="http://www.w3.org/2000/svg">
<path d="M12.0183 5.17297C8.6214 5.17297 5.84619 7.94818 5.84619 11.345C5.84619 13.1212 6.62325 14.8307 7.93315 15.9852C8.91002 16.9621 8.82121 19.049 8.79901 19.0712C8.79901 19.1822 8.82121 19.271 8.91002 19.3598C8.97663 19.4264 9.08763 19.4708 9.17644 19.4708H14.8379C14.9489 19.4708 15.0377 19.4264 15.1043 19.3598C15.1709 19.2932 15.2153 19.1822 15.2153 19.0712C15.2153 19.049 15.1043 16.9621 16.0812 15.9852C16.1034 15.963 16.1256 15.9408 16.1478 15.9186C17.4355 14.7419 18.1903 13.0768 18.1903 11.345C18.1903 7.94818 15.4151 5.17297 12.0183 5.17297ZM15.5705 15.4079C15.5483 15.4301 15.5039 15.4745 15.5039 15.4967C14.638 16.4292 14.4826 17.9611 14.4604 18.6938H9.55387C9.53167 17.9611 9.37626 16.3626 8.44379 15.4079C7.2671 14.3867 6.57885 12.8992 6.57885 11.3228C6.57885 8.32561 8.99883 5.90563 11.9961 5.90563C14.9933 5.90563 17.4133 8.32561 17.4133 11.3228C17.4133 12.8992 16.7472 14.3867 15.5705 15.4079Z" fill="#231F20"/>
<path d="M11.9961 6.74927C11.7963 6.74927 11.6187 6.92688 11.6187 7.1267C11.6187 7.32651 11.7963 7.50413 11.9961 7.50413C14.2384 7.50413 16.0368 9.32466 16.0368 11.5448C16.0368 11.7446 16.2144 11.9223 16.4142 11.9223C16.614 11.9223 16.7916 11.7446 16.7916 11.5448C16.8138 8.90283 14.6603 6.74927 11.9961 6.74927Z" fill="#231F20"/>
<path d="M14.4604 19.8927H9.53165C9.02101 19.8927 8.59918 20.3145 8.59918 20.8252C8.59918 21.3358 9.02101 21.7576 9.53165 21.7576H14.4382C14.971 21.7354 15.3929 21.3358 15.3929 20.8252C15.3929 20.3145 14.971 19.8927 14.4604 19.8927ZM14.4604 20.9806H9.53165C9.44284 20.9806 9.35404 20.914 9.35404 20.803C9.35404 20.692 9.42064 20.6254 9.53165 20.6254H14.4382C14.527 20.6254 14.6158 20.692 14.6158 20.803C14.6158 20.914 14.5492 20.9806 14.4604 20.9806Z" fill="#231F20"/>
<path d="M13.7278 22.135H10.2643C9.75368 22.135 9.33185 22.5568 9.33185 23.0675C9.33185 23.5781 9.75368 24 10.2643 24H13.7278C14.2384 24 14.6602 23.5781 14.6602 23.0675C14.6602 22.5346 14.2384 22.135 13.7278 22.135ZM13.7278 23.2229H10.2643C10.1755 23.2229 10.0867 23.1563 10.0867 23.0453C10.0867 22.9343 10.1533 22.8677 10.2643 22.8677H13.7278C13.8166 22.8677 13.9054 22.9343 13.9054 23.0453C13.9054 23.1563 13.8166 23.2229 13.7278 23.2229Z" fill="#231F20"/>
<path d="M11.9961 3.33025C12.2181 3.33025 12.3735 3.15264 12.3735 2.95282V0.377429C12.3735 0.177614 12.1959 0 11.9961 0C11.7963 0 11.6187 0.177614 11.6187 0.377429V2.95282C11.6187 3.15264 11.7963 3.33025 11.9961 3.33025Z" fill="#231F20"/>
<path d="M18.2791 1.90931C18.1015 1.7761 17.8794 1.84271 17.7684 1.99812L16.3475 4.12948C16.2143 4.30709 16.2587 4.55131 16.4363 4.66232C16.5029 4.70672 16.5695 4.72893 16.6362 4.72893C16.7694 4.72893 16.8804 4.66232 16.947 4.55131L18.3679 2.41995C18.5011 2.26454 18.4567 2.02032 18.2791 1.90931Z" fill="#231F20"/>
<path d="M7.4891 4.64011C7.55571 4.64011 7.62232 4.61791 7.68892 4.57351C7.86653 4.4625 7.91094 4.21828 7.79993 4.04067L6.42342 1.88711C6.31242 1.70949 6.0682 1.66509 5.89058 1.7761C5.71297 1.88711 5.66857 2.13132 5.77958 2.30894L7.15608 4.4625C7.24489 4.59571 7.35589 4.64011 7.4891 4.64011Z" fill="#231F20"/>
<path d="M4.8027 6.99354L2.56033 5.77244C2.38272 5.68363 2.1385 5.75024 2.04969 5.92785C1.93868 6.10547 2.00529 6.34969 2.2051 6.43849L4.44747 7.65959C4.51408 7.68179 4.55848 7.70399 4.62509 7.70399C4.7583 7.70399 4.89151 7.63739 4.95811 7.50418C5.04692 7.32656 4.98032 7.08234 4.8027 6.99354Z" fill="#231F20"/>
<path d="M21.9645 5.92785C21.8757 5.75024 21.6315 5.68363 21.4539 5.77244L19.1893 6.99354C19.0117 7.08234 18.9451 7.32656 19.0339 7.50418C19.1005 7.63739 19.2337 7.70399 19.3669 7.70399C19.4335 7.70399 19.5002 7.68179 19.5446 7.65959L21.8091 6.43849C21.9867 6.34969 22.0533 6.10547 21.9645 5.92785Z" fill="#231F20"/>
</svg>
