<svg width="720" height="143" viewBox="0 0 720 143" fill="none" xmlns="http://www.w3.org/2000/svg">
<path d="M190.65 95.4037C190.65 70.1011 180.607 45.8348 162.73 27.9431C144.853 10.0515 120.607 3.20185e-05 95.3249 2.98065e-05C70.0432 2.75945e-05 45.7969 10.0515 27.92 27.9431C10.0431 45.8348 -7.40837e-05 70.101 -7.62939e-05 95.4037" fill="#3B1C32"/>
<path d="M95.3501 47.5963C95.3501 72.8989 105.393 97.1652 123.27 115.057C141.147 132.949 165.393 143 190.675 143C215.957 143 240.203 132.949 258.08 115.057C275.957 97.1652 286 72.8989 286 47.5963" fill="#A4D4B4"/>
<rect x="598" y="31" width="122" height="64" rx="8" fill="#3B1C32"/>
<path d="M322.16 65.624V78.872C321.819 79 321.371 79.1067 320.816 79.192C320.261 79.32 319.643 79.384 318.96 79.384C317.637 79.384 316.677 79.1493 316.08 78.68C315.525 78.168 315.248 77.336 315.248 76.184V43.16C315.248 42.4347 315.44 41.88 315.824 41.496C316.251 41.0693 316.827 40.7493 317.552 40.536C318.875 40.0667 320.453 39.7467 322.288 39.576C324.123 39.4053 325.851 39.32 327.472 39.32C333.019 39.32 337.115 40.4933 339.76 42.84C342.448 45.1867 343.792 48.3653 343.792 52.376C343.792 56.3867 342.448 59.608 339.76 62.04C337.115 64.4293 333.147 65.624 327.856 65.624H322.16ZM327.408 60.056C330.352 60.056 332.656 59.416 334.32 58.136C336.027 56.856 336.88 54.936 336.88 52.376C336.88 49.816 336.069 47.9387 334.448 46.744C332.869 45.5493 330.587 44.952 327.6 44.952C326.619 44.952 325.637 44.9947 324.656 45.08C323.717 45.1653 322.864 45.272 322.096 45.4V60.056H327.408ZM361.618 74.712C363.111 74.712 364.412 74.5627 365.522 74.264C366.631 73.9653 367.42 73.6453 367.89 73.304V65.176L360.914 65.88C358.951 66.0933 357.479 66.5413 356.498 67.224C355.516 67.864 355.026 68.8667 355.026 70.232C355.026 71.64 355.559 72.7493 356.626 73.56C357.692 74.328 359.356 74.712 361.618 74.712ZM361.49 48.152C365.458 48.152 368.615 49.0267 370.962 50.776C373.308 52.4827 374.482 55.192 374.482 58.904V73.816C374.482 74.7973 374.247 75.5653 373.778 76.12C373.351 76.632 372.754 77.1227 371.986 77.592C370.876 78.232 369.447 78.7867 367.698 79.256C365.948 79.7253 363.922 79.96 361.618 79.96C357.479 79.96 354.236 79.1493 351.89 77.528C349.586 75.9067 348.434 73.5173 348.434 70.36C348.434 67.544 349.33 65.3893 351.122 63.896C352.956 62.4027 355.58 61.4853 358.994 61.144L367.89 60.248V58.84C367.89 56.9627 367.271 55.5973 366.034 54.744C364.839 53.8907 363.154 53.464 360.978 53.464C359.271 53.464 357.628 53.6987 356.05 54.168C354.471 54.6373 353.063 55.1707 351.826 55.768C351.399 55.4267 351.036 55.0213 350.738 54.552C350.439 54.04 350.29 53.4853 350.29 52.888C350.29 52.1627 350.46 51.5653 350.802 51.096C351.186 50.6267 351.762 50.2213 352.53 49.88C353.724 49.2827 355.09 48.856 356.626 48.6C358.162 48.3013 359.783 48.152 361.49 48.152ZM389.697 78.872C389.398 79 388.972 79.1067 388.417 79.192C387.905 79.32 387.329 79.384 386.689 79.384C385.452 79.384 384.534 79.1493 383.937 78.68C383.34 78.2107 383.041 77.4213 383.041 76.312V55.32C383.041 54.2533 383.254 53.4 383.681 52.76C384.108 52.0773 384.79 51.4373 385.729 50.84C386.966 50.072 388.545 49.432 390.465 48.92C392.385 48.408 394.497 48.152 396.801 48.152C400.556 48.152 402.433 49.2187 402.433 51.352C402.433 51.864 402.348 52.3547 402.177 52.824C402.006 53.2507 401.814 53.6347 401.601 53.976C401.174 53.8907 400.641 53.8053 400.001 53.72C399.361 53.6347 398.678 53.592 397.953 53.592C396.246 53.592 394.689 53.784 393.281 54.168C391.873 54.5093 390.678 54.9573 389.697 55.512V78.872ZM412.075 79.384C410.837 79.384 409.92 79.1493 409.323 78.68C408.725 78.2107 408.427 77.4213 408.427 76.312V37.464C408.725 37.3787 409.152 37.272 409.707 37.144C410.261 37.016 410.859 36.952 411.499 36.952C412.736 36.952 413.653 37.1867 414.251 37.656C414.848 38.1253 415.147 38.9147 415.147 40.024V78.872C414.805 79 414.357 79.1067 413.803 79.192C413.291 79.32 412.715 79.384 412.075 79.384ZM435.618 74.712C437.111 74.712 438.412 74.5627 439.522 74.264C440.631 73.9653 441.42 73.6453 441.89 73.304V65.176L434.914 65.88C432.951 66.0933 431.479 66.5413 430.498 67.224C429.516 67.864 429.026 68.8667 429.026 70.232C429.026 71.64 429.559 72.7493 430.626 73.56C431.692 74.328 433.356 74.712 435.618 74.712ZM435.49 48.152C439.458 48.152 442.615 49.0267 444.962 50.776C447.308 52.4827 448.482 55.192 448.482 58.904V73.816C448.482 74.7973 448.247 75.5653 447.778 76.12C447.351 76.632 446.754 77.1227 445.986 77.592C444.876 78.232 443.447 78.7867 441.698 79.256C439.948 79.7253 437.922 79.96 435.618 79.96C431.479 79.96 428.236 79.1493 425.89 77.528C423.586 75.9067 422.434 73.5173 422.434 70.36C422.434 67.544 423.33 65.3893 425.122 63.896C426.956 62.4027 429.58 61.4853 432.994 61.144L441.89 60.248V58.84C441.89 56.9627 441.271 55.5973 440.034 54.744C438.839 53.8907 437.154 53.464 434.978 53.464C433.271 53.464 431.628 53.6987 430.05 54.168C428.471 54.6373 427.063 55.1707 425.826 55.768C425.399 55.4267 425.036 55.0213 424.738 54.552C424.439 54.04 424.29 53.4853 424.29 52.888C424.29 52.1627 424.46 51.5653 424.802 51.096C425.186 50.6267 425.762 50.2213 426.53 49.88C427.724 49.2827 429.09 48.856 430.626 48.6C432.162 48.3013 433.783 48.152 435.49 48.152ZM494.289 58.968C494.289 57.0907 493.756 55.7253 492.689 54.872C491.665 53.976 490.257 53.528 488.465 53.528C487.27 53.528 486.118 53.7627 485.009 54.232C483.942 54.6587 482.961 55.256 482.065 56.024C482.15 56.3653 482.214 56.728 482.257 57.112C482.3 57.496 482.321 57.88 482.321 58.264V78.872C482.022 79 481.596 79.1067 481.041 79.192C480.486 79.32 479.91 79.384 479.313 79.384C478.076 79.384 477.158 79.1493 476.561 78.68C475.964 78.2107 475.665 77.4213 475.665 76.312V58.968C475.665 57.0907 475.132 55.7253 474.065 54.872C472.998 53.976 471.569 53.528 469.777 53.528C468.582 53.528 467.452 53.72 466.385 54.104C465.318 54.488 464.422 54.9147 463.697 55.384V78.872C463.398 79 462.972 79.1067 462.417 79.192C461.905 79.32 461.329 79.384 460.689 79.384C459.452 79.384 458.534 79.1493 457.937 78.68C457.34 78.2107 457.041 77.4213 457.041 76.312V55.192C457.041 54.2107 457.233 53.4213 457.617 52.824C458.001 52.2267 458.641 51.6293 459.537 51.032C460.774 50.2213 462.332 49.5387 464.209 48.984C466.086 48.4293 467.985 48.152 469.905 48.152C471.91 48.152 473.702 48.4293 475.281 48.984C476.902 49.5387 478.225 50.3493 479.249 51.416C480.444 50.4773 481.852 49.7093 483.473 49.112C485.137 48.472 487.057 48.152 489.233 48.152C490.897 48.152 492.454 48.3653 493.905 48.792C495.356 49.176 496.593 49.816 497.617 50.712C498.684 51.5653 499.516 52.6533 500.113 53.976C500.71 55.2987 501.009 56.8773 501.009 58.712V78.872C500.668 79 500.22 79.1067 499.665 79.192C499.153 79.32 498.577 79.384 497.937 79.384C496.7 79.384 495.782 79.1493 495.185 78.68C494.588 78.2107 494.289 77.4213 494.289 76.312V58.968ZM515.038 67.416C515.635 69.848 516.787 71.6613 518.494 72.856C520.243 74.008 522.462 74.584 525.15 74.584C526.942 74.584 528.584 74.3067 530.078 73.752C531.571 73.1973 532.766 72.6 533.662 71.96C534.856 72.6427 535.454 73.6027 535.454 74.84C535.454 75.5653 535.176 76.248 534.622 76.888C534.067 77.4853 533.299 78.0187 532.318 78.488C531.379 78.9147 530.248 79.256 528.926 79.512C527.646 79.768 526.259 79.896 524.766 79.896C522.291 79.896 520.03 79.5547 517.982 78.872C515.976 78.1893 514.248 77.1653 512.798 75.8C511.347 74.4347 510.216 72.7493 509.406 70.744C508.638 68.7387 508.254 66.4133 508.254 63.768C508.254 61.208 508.638 58.968 509.406 57.048C510.174 55.0853 511.219 53.464 512.542 52.184C513.864 50.8613 515.422 49.8587 517.214 49.176C519.006 48.4933 520.926 48.152 522.974 48.152C525.022 48.152 526.878 48.4933 528.542 49.176C530.248 49.816 531.699 50.7333 532.894 51.928C534.131 53.08 535.07 54.4667 535.71 56.088C536.392 57.7093 536.734 59.48 536.734 61.4C536.734 62.4667 536.478 63.256 535.966 63.768C535.454 64.2373 534.707 64.5573 533.726 64.728L515.038 67.416ZM522.974 53.336C520.627 53.336 518.664 54.1253 517.086 55.704C515.55 57.2827 514.739 59.544 514.654 62.488L530.398 60.248C530.227 58.328 529.523 56.7067 528.286 55.384C527.048 54.0187 525.278 53.336 522.974 53.336ZM563.828 59.608C563.828 57.5173 563.23 55.9813 562.036 55C560.884 54.0187 559.305 53.528 557.3 53.528C555.806 53.528 554.462 53.72 553.268 54.104C552.116 54.488 551.113 54.9147 550.26 55.384V78.872C549.961 79 549.534 79.1067 548.98 79.192C548.468 79.32 547.892 79.384 547.252 79.384C546.014 79.384 545.097 79.1493 544.5 78.68C543.902 78.2107 543.604 77.4213 543.604 76.312V55.192C543.604 54.2107 543.796 53.4213 544.18 52.824C544.564 52.2267 545.204 51.6293 546.1 51.032C547.294 50.3067 548.852 49.6453 550.772 49.048C552.692 48.4507 554.868 48.152 557.3 48.152C561.438 48.152 564.681 49.0907 567.028 50.968C569.374 52.8027 570.548 55.5973 570.548 59.352V78.872C570.249 79 569.822 79.1067 569.268 79.192C568.713 79.32 568.116 79.384 567.476 79.384C566.238 79.384 565.321 79.1493 564.724 78.68C564.126 78.2107 563.828 77.4213 563.828 76.312V59.608ZM586.074 70.232C586.074 71.768 586.522 72.856 587.418 73.496C588.314 74.136 589.572 74.456 591.194 74.456C591.919 74.456 592.687 74.3493 593.498 74.136C594.308 73.9227 595.012 73.6667 595.61 73.368C595.908 73.7093 596.164 74.0933 596.378 74.52C596.634 74.9467 596.762 75.4587 596.762 76.056C596.762 77.1653 596.186 78.0827 595.034 78.808C593.924 79.5333 592.218 79.896 589.914 79.896C586.714 79.896 584.154 79.192 582.234 77.784C580.356 76.3333 579.418 73.9653 579.418 70.68V40.792C579.716 40.7067 580.143 40.6 580.698 40.472C581.252 40.344 581.85 40.28 582.49 40.28C583.727 40.28 584.623 40.5147 585.178 40.984C585.775 41.4533 586.074 42.2427 586.074 43.352V49.688H595.994C596.164 49.944 596.314 50.3067 596.442 50.776C596.612 51.2453 596.698 51.736 596.698 52.248C596.698 54.0827 595.908 55 594.33 55H586.074V70.232Z" fill="#3B1C32"/>
<path d="M614.868 74.712C616.361 74.712 617.662 74.5627 618.772 74.264C619.881 73.9653 620.67 73.6453 621.14 73.304V65.176L614.164 65.88C612.201 66.0933 610.729 66.5413 609.748 67.224C608.766 67.864 608.276 68.8667 608.276 70.232C608.276 71.64 608.809 72.7493 609.876 73.56C610.942 74.328 612.606 74.712 614.868 74.712ZM614.74 48.152C618.708 48.152 621.865 49.0267 624.212 50.776C626.558 52.4827 627.732 55.192 627.732 58.904V73.816C627.732 74.7973 627.497 75.5653 627.028 76.12C626.601 76.632 626.004 77.1227 625.236 77.592C624.126 78.232 622.697 78.7867 620.948 79.256C619.198 79.7253 617.172 79.96 614.868 79.96C610.729 79.96 607.486 79.1493 605.14 77.528C602.836 75.9067 601.684 73.5173 601.684 70.36C601.684 67.544 602.58 65.3893 604.372 63.896C606.206 62.4027 608.83 61.4853 612.244 61.144L621.14 60.248V58.84C621.14 56.9627 620.521 55.5973 619.284 54.744C618.089 53.8907 616.404 53.464 614.228 53.464C612.521 53.464 610.878 53.6987 609.3 54.168C607.721 54.6373 606.313 55.1707 605.076 55.768C604.649 55.4267 604.286 55.0213 603.988 54.552C603.689 54.04 603.54 53.4853 603.54 52.888C603.54 52.1627 603.71 51.5653 604.052 51.096C604.436 50.6267 605.012 50.2213 605.78 49.88C606.974 49.2827 608.34 48.856 609.876 48.6C611.412 48.3013 613.033 48.152 614.74 48.152ZM663.107 90.648C662.808 90.776 662.382 90.8827 661.827 90.968C661.272 91.096 660.675 91.16 660.035 91.16C658.798 91.16 657.88 90.9253 657.283 90.456C656.686 89.9867 656.387 89.176 656.387 88.024V78.36C655.534 78.7867 654.552 79.1493 653.443 79.448C652.334 79.7467 651.054 79.896 649.603 79.896C647.427 79.896 645.422 79.5973 643.587 79C641.795 78.36 640.238 77.4 638.915 76.12C637.592 74.7973 636.547 73.1547 635.779 71.192C635.054 69.1867 634.691 66.84 634.691 64.152C634.691 61.464 635.075 59.1173 635.843 57.112C636.654 55.1067 637.763 53.4427 639.171 52.12C640.579 50.7973 642.243 49.816 644.163 49.176C646.126 48.4933 648.259 48.152 650.563 48.152C652.739 48.152 654.702 48.4293 656.451 48.984C658.243 49.496 659.694 50.0933 660.803 50.776C661.528 51.2453 662.083 51.7787 662.467 52.376C662.894 52.9733 663.107 53.72 663.107 54.616V90.648ZM650.563 74.456C651.758 74.456 652.846 74.2853 653.827 73.944C654.851 73.6027 655.726 73.176 656.451 72.664V55.064C655.811 54.68 655 54.3387 654.019 54.04C653.08 53.6987 651.992 53.528 650.755 53.528C649.432 53.528 648.216 53.7413 647.107 54.168C645.998 54.552 645.016 55.1707 644.163 56.024C643.352 56.8773 642.712 57.9867 642.243 59.352C641.774 60.6747 641.539 62.2747 641.539 64.152C641.539 67.7787 642.35 70.4027 643.971 72.024C645.592 73.6453 647.79 74.456 650.563 74.456ZM671.916 49.112C672.215 49.0267 672.641 48.9413 673.196 48.856C673.751 48.728 674.348 48.664 674.988 48.664C676.225 48.664 677.121 48.8987 677.676 49.368C678.273 49.8373 678.572 50.648 678.572 51.8V67.608C678.572 70.0827 679.212 71.8533 680.492 72.92C681.815 73.944 683.628 74.456 685.932 74.456C687.425 74.456 688.684 74.3067 689.708 74.008C690.732 73.7093 691.543 73.3893 692.14 73.048V49.112C692.481 49.0267 692.908 48.9413 693.42 48.856C693.975 48.728 694.572 48.664 695.212 48.664C696.449 48.664 697.367 48.8987 697.964 49.368C698.561 49.8373 698.86 50.648 698.86 51.8V73.368C698.86 74.3067 698.711 75.0747 698.412 75.672C698.113 76.2693 697.516 76.8453 696.62 77.4C695.511 78.04 694.039 78.616 692.204 79.128C690.412 79.64 688.3 79.896 685.868 79.896C681.473 79.896 678.039 78.936 675.564 77.016C673.132 75.0533 671.916 71.96 671.916 67.736V49.112ZM714.642 78.872C714.343 79 713.917 79.1067 713.362 79.192C712.85 79.32 712.253 79.384 711.57 79.384C710.333 79.384 709.415 79.1493 708.818 78.68C708.221 78.2107 707.922 77.4213 707.922 76.312V49.24C708.263 49.1547 708.69 49.048 709.202 48.92C709.757 48.792 710.375 48.728 711.058 48.728C712.295 48.728 713.191 48.9627 713.746 49.432C714.343 49.9013 714.642 50.712 714.642 51.864V78.872ZM707.218 39.832C707.218 38.7227 707.602 37.8053 708.37 37.08C709.138 36.312 710.119 35.928 711.314 35.928C712.509 35.928 713.469 36.312 714.194 37.08C714.919 37.8053 715.282 38.7227 715.282 39.832C715.282 40.9413 714.919 41.88 714.194 42.648C713.469 43.3733 712.509 43.736 711.314 43.736C710.119 43.736 709.138 43.3733 708.37 42.648C707.602 41.88 707.218 40.9413 707.218 39.832Z" fill="#A4D4B4"/>
</svg>
