<svg width="16" height="24" viewBox="0 0 16 24" fill="none" xmlns="http://www.w3.org/2000/svg">
<g clip-path="url(#clip0)">
<path d="M15.7812 17.8344L12.6656 14.7188C12.525 14.5781 12.3344 14.5 12.1344 14.5H11.625C12.4875 13.3969 13 12.0094 13 10.5C13 6.90937 10.0906 4 6.5 4C2.90937 4 0 6.90937 0 10.5C0 14.0906 2.90937 17 6.5 17C8.00937 17 9.39688 16.4875 10.5 15.625V16.1344C10.5 16.3344 10.5781 16.525 10.7188 16.6656L13.8344 19.7812C14.1281 20.075 14.6031 20.075 14.8938 19.7812L15.7781 18.8969C16.0719 18.6031 16.0719 18.1281 15.7812 17.8344ZM6.5 14.5C4.29063 14.5 2.5 12.7125 2.5 10.5C2.5 8.29063 4.2875 6.5 6.5 6.5C8.70938 6.5 10.5 8.2875 10.5 10.5C10.5 12.7094 8.7125 14.5 6.5 14.5Z" fill="#343A40"/>
</g>
<defs>
<clipPath id="clip0">
<rect width="16" height="16" fill="white" transform="translate(0 4)"/>
</clipPath>
</defs>
</svg>
