<svg width="40" height="28" viewBox="0 0 40 28" fill="none" xmlns="http://www.w3.org/2000/svg">
<path d="M32 20.0001H31.8825L30.43 8.37945C30.2771 7.171 29.689 6.0597 28.7757 5.25359C27.8625 4.44749 26.6868 4.00184 25.4688 4.00008H14.5312C13.3131 4.00186 12.1373 4.4476 11.2241 5.25383C10.3108 6.06006 9.72278 7.17151 9.57 8.38008L8.1175 20.0001H8C7.46957 20.0001 6.96086 20.2108 6.58579 20.5859C6.21071 20.9609 6 21.4696 6 22.0001V26.0001C6 26.5305 6.21071 27.0392 6.58579 27.4143C6.96086 27.7894 7.46957 28.0001 8 28.0001H32C32.5304 28.0001 33.0391 27.7894 33.4142 27.4143C33.7893 27.0392 34 26.5305 34 26.0001V22.0001C34 21.4696 33.7893 20.9609 33.4142 20.5859C33.0391 20.2108 32.5304 20.0001 32 20.0001ZM11.555 8.62508C11.6472 7.90052 12.0003 7.23438 12.548 6.75124C13.0958 6.26811 13.8008 6.00107 14.5312 6.00008H25.4688C26.1992 6.00107 26.9042 6.26811 27.452 6.75124C27.9997 7.23438 28.3528 7.90052 28.445 8.62508L29.8675 20.0001H14.4888L15.9956 8.6982C16.0044 8.63307 16.0003 8.56684 15.9835 8.5033C15.9666 8.43977 15.9374 8.38017 15.8976 8.32793C15.8577 8.27569 15.8079 8.23182 15.751 8.19883C15.6942 8.16585 15.6314 8.1444 15.5662 8.1357L14.575 8.00258C14.5099 7.99378 14.4436 7.99792 14.3801 8.01475C14.3166 8.03157 14.257 8.06076 14.2047 8.10064C14.1525 8.14052 14.1086 8.19031 14.0756 8.24716C14.0426 8.30401 14.0212 8.36681 14.0125 8.43195L12.4712 20.0001H10.1325L11.555 8.62508ZM32 26.0001H8V22.0001H32V26.0001ZM5 10.0001H1C0.734784 10.0001 0.48043 10.1054 0.292893 10.293C0.105357 10.4805 0 10.7349 0 11.0001C0 11.2653 0.105357 11.5196 0.292893 11.7072C0.48043 11.8947 0.734784 12.0001 1 12.0001H5C5.26522 12.0001 5.51957 11.8947 5.70711 11.7072C5.89464 11.5196 6 11.2653 6 11.0001C6 10.7349 5.89464 10.4805 5.70711 10.293C5.51957 10.1054 5.26522 10.0001 5 10.0001ZM39 10.0001H35C34.7348 10.0001 34.4804 10.1054 34.2929 10.293C34.1054 10.4805 34 10.7349 34 11.0001C34 11.2653 34.1054 11.5196 34.2929 11.7072C34.4804 11.8947 34.7348 12.0001 35 12.0001H39C39.2652 12.0001 39.5196 11.8947 39.7071 11.7072C39.8946 11.5196 40 11.2653 40 11.0001C40 10.7349 39.8946 10.4805 39.7071 10.293C39.5196 10.1054 39.2652 10.0001 39 10.0001ZM2.5525 1.89383L6.5525 3.89383C6.66999 3.9526 6.79791 3.98764 6.92895 3.99698C7.05998 4.00631 7.19158 3.98974 7.31621 3.94821C7.44084 3.90669 7.55608 3.84102 7.65533 3.75496C7.75459 3.6689 7.83592 3.56413 7.89469 3.44664C7.95345 3.32915 7.9885 3.20123 7.99783 3.0702C8.00716 2.93916 7.9906 2.80757 7.94907 2.68293C7.90754 2.5583 7.84188 2.44306 7.75582 2.34381C7.66976 2.24455 7.56499 2.16322 7.4475 2.10445L3.4475 0.104454C3.21021 -0.0142308 2.9355 -0.0337927 2.68379 0.0500712C2.43208 0.133935 2.224 0.314355 2.10531 0.551641C1.98663 0.788927 1.96707 1.06364 2.05093 1.31535C2.13479 1.56706 2.31521 1.77514 2.5525 1.89383ZM33 4.00008C33.1553 3.99972 33.3084 3.96358 33.4475 3.89445L37.4475 1.89445C37.6849 1.77577 37.8654 1.56765 37.9493 1.31588C38.0332 1.06412 38.0137 0.789322 37.895 0.551954C37.7763 0.314585 37.5682 0.134085 37.3164 0.0501628C37.0647 -0.0337598 36.7899 -0.0142308 36.5525 0.104454L32.5525 2.10445C32.3503 2.20486 32.1881 2.37071 32.0921 2.57504C31.9962 2.77937 31.9722 3.01014 32.0241 3.22984C32.0759 3.44953 32.2006 3.64521 32.3778 3.78506C32.555 3.92491 32.7743 4.00069 33 4.00008Z" fill="#C05C00"/>
</svg>